<svg xmlns="http://www.w3.org/2000/svg" version="1.1">
<line x1="22.000000" y1="70.000000" x2="32.000000" y2="54.000000" stroke="black" stroke-width="0.714286"/>
<line x1="22.000000" y1="70.000000" x2="80.000000" y2="80.000000" stroke="black" stroke-width="0.035714"/>
<line x1="80.000000" y1="40.000000" x2="32.000000" y2="54.000000" stroke="black" stroke-width="0.035714"/>
<line x1="80.000000" y1="40.000000" x2="80.000000" y2="80.000000" stroke="black" stroke-width="0.714286"/>
<line x1="25.000000" y1="8.000000" x2="37.000000" y2="32.000000" stroke="black" stroke-width="0.500000"/>
<line x1="25.000000" y1="8.000000" x2="10.000000" y2="15.000000" stroke="black" stroke-width="0.500000"/>
<line x1="37.000000" y1="32.000000" x2="70.000000" y2="30.000000" stroke="gray" stroke-width="0.350000"/>
<line x1="37.000000" y1="32.000000" x2="20.000000" y2="54.000000" stroke="red" stroke-width="0.100000"/>
<line x1="37.000000" y1="32.000000" x2="45.000000" y2="22.000000" stroke="green" stroke-width="0.050000"/>
<line x1="32.000000" y1="54.000000" x2="40.000000" y2="40.000000" stroke="green" stroke-width="0.500000"/>
<line x1="32.000000" y1="54.000000" x2="20.000000" y2="54.000000" stroke="red" stroke-width="0.160714"/>
<line x1="32.000000" y1="54.000000" x2="80.000000" y2="80.000000" stroke="gray" stroke-width="0.014286"/>
<line x1="32.000000" y1="54.000000" x2="80.000000" y2="80.000000" stroke="navy" stroke-width="0.075000"/>
<line x1="70.000000" y1="30.000000" x2="80.000000" y2="80.000000" stroke="navy" stroke-width="0.017500"/>
<line x1="20.000000" y1="54.000000" x2="80.000000" y2="80.000000" stroke="navy" stroke-width="0.013036"/>
<line x1="45.000000" y1="22.000000" x2="80.000000" y2="80.000000" stroke="navy" stroke-width="0.002500"/>
<circle cx="22.000000" cy="70.000000" r="2.000000" stroke="white" stroke-width="0.000000" fill="white"/>
<text x="21.000000" y="71.000000" fill="black" font-size="4px" font-weight="1.000000">W</text>
<circle cx="80.000000" cy="40.000000" r="2.000000" stroke="white" stroke-width="0.000000" fill="white"/>
<text x="79.000000" y="41.000000" fill="black" font-size="4px" font-weight="1.000000">W</text>
<circle cx="25.000000" cy="8.000000" r="2.000000" stroke="white" stroke-width="0.000000" fill="white"/>
<text x="24.000000" y="9.000000" fill="black" font-size="4px" font-weight="1.000000">W</text>
<rect x="36.000000" y="31.000000" width="2.000000" height="2.000000" fill="white" stroke="black" stroke-width="0.724050"/>
<text x="39.000000" y="34.000000" fill="black" font-size="2px">S1</text>
<rect x="31.000000" y="53.000000" width="2.000000" height="2.000000" fill="white" stroke="black" stroke-width="0.191853"/>
<text x="34.000000" y="56.000000" fill="black" font-size="2px">S2</text>
<rect x="59.000000" y="59.000000" width="2.000000" height="2.000000" fill="white" stroke="black" stroke-width="0.100000" transform="rotate(45,59.000000,59.000000)"/>
<text x="61.000000" y="61.000000" fill="black" font-size="2px">I2</text>
<rect x="39.000000" y="39.000000" width="2.000000" height="2.000000" fill="white" stroke="black" stroke-width="0.105264" transform="rotate(45,39.000000,39.000000)"/>
<text x="41.000000" y="41.000000" fill="black" font-size="2px">C</text>
<rect x="69.000000" y="29.000000" width="2.000000" height="2.000000" fill="white" stroke="black" stroke-width="0.100000" transform="rotate(45,69.000000,29.000000)"/>
<text x="71.000000" y="31.000000" fill="black" font-size="2px">G</text>
<rect x="19.000000" y="53.000000" width="2.000000" height="2.000000" fill="white" stroke="black" stroke-width="0.100000" transform="rotate(45,19.000000,53.000000)"/>
<text x="21.000000" y="55.000000" fill="black" font-size="2px">P</text>
<rect x="44.000000" y="21.000000" width="2.000000" height="2.000000" fill="white" stroke="black" stroke-width="0.100000" transform="rotate(45,44.000000,21.000000)"/>
<text x="46.000000" y="23.000000" fill="black" font-size="2px">I1</text>
<circle cx="80.000000" cy="80.000000" r="2.000000" stroke="black" stroke-width="0.100000" fill="rgb(15, 15, 15)"/>
<circle cx="10.000000" cy="15.000000" r="2.000000" stroke="black" stroke-width="0.100000" fill="rgb(0, 0, 0)"/>
<text x="100.000000" y="50.000000" fill="black" font-size="6px" font-weight="1.000000">Total cost: $10,662,579 / a</text>
</svg>