<svg xmlns="http://www.w3.org/2000/svg" version="1.1">
<line x1="80.000000" y1="40.000000" x2="37.000000" y2="32.000000" stroke="black" stroke-width="0.187037"/>
<line x1="80.000000" y1="40.000000" x2="80.000000" y2="80.000000" stroke="black" stroke-width="0.562963"/>
<line x1="22.000000" y1="70.000000" x2="32.000000" y2="54.000000" stroke="black" stroke-width="0.750000"/>
<line x1="25.000000" y1="8.000000" x2="37.000000" y2="32.000000" stroke="black" stroke-width="0.657407"/>
<line x1="25.000000" y1="8.000000" x2="10.000000" y2="15.000000" stroke="black" stroke-width="0.342593"/>
<line x1="37.000000" y1="32.000000" x2="70.000000" y2="30.000000" stroke="gray" stroke-width="0.500000"/>
<line x1="37.000000" y1="32.000000" x2="45.000000" y2="22.000000" stroke="green" stroke-width="0.065741"/>
<line x1="37.000000" y1="32.000000" x2="20.000000" y2="54.000000" stroke="red" stroke-width="0.225000"/>
<line x1="37.000000" y1="32.000000" x2="80.000000" y2="80.000000" stroke="gray" stroke-width="0.035000"/>
<line x1="37.000000" y1="32.000000" x2="80.000000" y2="80.000000" stroke="navy" stroke-width="0.018704"/>
<line x1="32.000000" y1="54.000000" x2="60.000000" y2="60.000000" stroke="green" stroke-width="0.025000"/>
<line x1="32.000000" y1="54.000000" x2="40.000000" y2="40.000000" stroke="green" stroke-width="0.500000"/>
<line x1="32.000000" y1="54.000000" x2="20.000000" y2="54.000000" stroke="red" stroke-width="0.150000"/>
<line x1="32.000000" y1="54.000000" x2="80.000000" y2="80.000000" stroke="navy" stroke-width="0.075000"/>
<line x1="70.000000" y1="30.000000" x2="80.000000" y2="80.000000" stroke="navy" stroke-width="0.025000"/>
<line x1="45.000000" y1="22.000000" x2="80.000000" y2="80.000000" stroke="navy" stroke-width="0.003287"/>
<line x1="60.000000" y1="60.000000" x2="80.000000" y2="80.000000" stroke="navy" stroke-width="0.001250"/>
<line x1="20.000000" y1="54.000000" x2="80.000000" y2="80.000000" stroke="navy" stroke-width="0.018750"/>
<circle cx="80.000000" cy="40.000000" r="2.000000" stroke="white" stroke-width="0.000000" fill="white"/>
<text x="79.000000" y="41.000000" fill="black" font-size="4px" font-weight="1.000000">W</text>
<circle cx="22.000000" cy="70.000000" r="2.000000" stroke="white" stroke-width="0.000000" fill="white"/>
<text x="21.000000" y="71.000000" fill="black" font-size="4px" font-weight="1.000000">W</text>
<circle cx="25.000000" cy="8.000000" r="2.000000" stroke="white" stroke-width="0.000000" fill="white"/>
<text x="24.000000" y="9.000000" fill="black" font-size="4px" font-weight="1.000000">W</text>
<rect x="36.000000" y="31.000000" width="2.000000" height="2.000000" fill="white" stroke="black" stroke-width="0.100000"/>
<text x="39.000000" y="34.000000" fill="black" font-size="2px">S1</text>
<rect x="31.000000" y="53.000000" width="2.000000" height="2.000000" fill="white" stroke="black" stroke-width="0.100000"/>
<text x="34.000000" y="56.000000" fill="black" font-size="2px">S2</text>
<rect x="69.000000" y="29.000000" width="2.000000" height="2.000000" fill="white" stroke="black" stroke-width="0.777169" transform="rotate(45,69.000000,29.000000)"/>
<text x="71.000000" y="31.000000" fill="black" font-size="2px">G</text>
<rect x="44.000000" y="21.000000" width="2.000000" height="2.000000" fill="white" stroke="black" stroke-width="0.100000" transform="rotate(45,44.000000,21.000000)"/>
<text x="46.000000" y="23.000000" fill="black" font-size="2px">I1</text>
<rect x="59.000000" y="59.000000" width="2.000000" height="2.000000" fill="white" stroke="black" stroke-width="0.100000" transform="rotate(45,59.000000,59.000000)"/>
<text x="61.000000" y="61.000000" fill="black" font-size="2px">I2</text>
<rect x="39.000000" y="39.000000" width="2.000000" height="2.000000" fill="white" stroke="black" stroke-width="0.116626" transform="rotate(45,39.000000,39.000000)"/>
<text x="41.000000" y="41.000000" fill="black" font-size="2px">C</text>
<rect x="19.000000" y="53.000000" width="2.000000" height="2.000000" fill="white" stroke="black" stroke-width="0.298040" transform="rotate(45,19.000000,53.000000)"/>
<text x="21.000000" y="55.000000" fill="black" font-size="2px">P</text>
<circle cx="80.000000" cy="80.000000" r="2.000000" stroke="black" stroke-width="0.100000" fill="rgb(224, 224, 224)"/>
<circle cx="10.000000" cy="15.000000" r="2.000000" stroke="black" stroke-width="0.100000" fill="rgb(167, 167, 167)"/>
<text x="100.000000" y="50.000000" fill="black" font-size="6px" font-weight="1.000000">Total cost: $6,869,114 / a</text>
</svg>