<svg xmlns="http://www.w3.org/2000/svg" version="1.1">
<line x1="80.000000" y1="40.000000" x2="80.000000" y2="80.000000" stroke="black" stroke-width="0.750000"/>
<line x1="25.000000" y1="8.000000" x2="10.000000" y2="15.000000" stroke="black" stroke-width="1.000000"/>
<line x1="22.000000" y1="70.000000" x2="80.000000" y2="80.000000" stroke="black" stroke-width="0.750000"/>
<circle cx="80.000000" cy="40.000000" r="2.000000" stroke="white" stroke-width="0.000000" fill="white"/>
<text x="79.000000" y="41.000000" fill="black" font-size="4px" font-weight="1.000000">W</text>
<circle cx="25.000000" cy="8.000000" r="2.000000" stroke="white" stroke-width="0.000000" fill="white"/>
<text x="24.000000" y="9.000000" fill="black" font-size="4px" font-weight="1.000000">W</text>
<circle cx="22.000000" cy="70.000000" r="2.000000" stroke="white" stroke-width="0.000000" fill="white"/>
<text x="21.000000" y="71.000000" fill="black" font-size="4px" font-weight="1.000000">W</text>
<rect x="69.000000" y="29.000000" width="2.000000" height="2.000000" fill="white" stroke="black" stroke-width="0.100000" transform="rotate(45,69.000000,29.000000)"/>
<text x="71.000000" y="31.000000" fill="black" font-size="2px">G</text>
<rect x="59.000000" y="59.000000" width="2.000000" height="2.000000" fill="white" stroke="black" stroke-width="0.100000" transform="rotate(45,59.000000,59.000000)"/>
<text x="61.000000" y="61.000000" fill="black" font-size="2px">I2</text>
<rect x="19.000000" y="53.000000" width="2.000000" height="2.000000" fill="white" stroke="black" stroke-width="0.100000" transform="rotate(45,19.000000,53.000000)"/>
<text x="21.000000" y="55.000000" fill="black" font-size="2px">P</text>
<rect x="39.000000" y="39.000000" width="2.000000" height="2.000000" fill="white" stroke="black" stroke-width="0.100000" transform="rotate(45,39.000000,39.000000)"/>
<text x="41.000000" y="41.000000" fill="black" font-size="2px">C</text>
<rect x="44.000000" y="21.000000" width="2.000000" height="2.000000" fill="white" stroke="black" stroke-width="0.100000" transform="rotate(45,44.000000,21.000000)"/>
<text x="46.000000" y="23.000000" fill="black" font-size="2px">I1</text>
<circle cx="10.000000" cy="15.000000" r="2.000000" stroke="black" stroke-width="0.100000" fill="rgb(0, 0, 0)"/>
<circle cx="80.000000" cy="80.000000" r="2.000000" stroke="black" stroke-width="0.100000" fill="rgb(20, 20, 20)"/>
<text x="100.000000" y="50.000000" fill="black" font-size="6px" font-weight="1.000000">Total cost: $21,833,523 / a</text>
</svg>